<svg xmlns="http://www.w3.org/2000/svg" viewBox="0 0 77.6 97.5"><style>.st0{fill:#fff}</style><g id="XMLID_1_"><g id="XMLID_104_"><path id="XMLID_124_" class="st0" d="M.8 3.4c0 .5.4.8.8.8.9 0 1.6.7 1.6 1.6 0 .9-.7 1.6-1.6 1.6-.7.1-1.3-.4-1.5-1l.8-.3c.1.4.4.6.7.6.5 0 .8-.4.8-.8.1-.5-.3-.9-.8-.9C.7 5 0 4.3 0 3.4c0-.9.7-1.6 1.6-1.6.7 0 1.3.5 1.6 1.1l-.8.2c-.1-.3-.4-.5-.8-.5s-.8.3-.8.8z"/><path id="XMLID_120_" class="st0" d="M10.7 6.5H7.3l-.6 1h-.9L9 1.6l3.2 5.9h-.9l-.6-1zm-.5-.8L9 3.3 7.7 5.7h2.5zM7.9.6l2-.6.1.4L8 1 7.9.6z"/><path id="XMLID_118_" class="st0" d="M20.5 1.7v5.8h-.1l-4.1-3.9v3.9h-.8V1.7l4.1 3.9V1.7h.9z"/><path id="XMLID_115_" class="st0" d="M24.6 7.5V1.7h2.1c1.6 0 2.9 1.3 2.9 2.9 0 1.6-1.3 2.9-2.9 2.9h-2.1zm2.1-.8c1.1 0 2.1-.9 2.1-2.1 0-1.1-.9-2.1-2.1-2.1h-1.2v4.1h1.2z"/><path id="XMLID_113_" class="st0" d="M35.3 7.5c-1.4 0-2.5-1.1-2.5-2.5V1.7h.8V5c0 .9.7 1.6 1.6 1.6.9 0 1.6-.7 1.6-1.6V1.7h.8V5c.1 1.4-1 2.5-2.3 2.5z"/><path id="XMLID_111_" class="st0" d="M45.5 5.9l.7.5c-.5.7-1.4 1.1-2.3 1.1-1.6 0-2.9-1.3-2.9-2.9 0-1.6 1.3-2.9 2.9-2.9.9 0 1.8.5 2.3 1.1l-.7.5c-.4-.5-1-.8-1.6-.8-1.1 0-2.1.9-2.1 2.1 0 1.1.9 2.1 2.1 2.1.6 0 1.2-.3 1.6-.8z"/><path id="XMLID_109_" class="st0" d="M54.5 1.7v5.8h-.8V5.7h-3.3v1.9h-.8V1.7h.8v3.1h3.3V1.7h.8z"/><path id="XMLID_107_" class="st0" d="M59.4 2.6v2.3h2.5v.8h-2.5v1h3.3v.8h-4.1V1.7h4.1v.8h-3.3z"/><path id="XMLID_105_" class="st0" d="M67.2 3.4c0 .5.4.8.8.8.9 0 1.6.7 1.6 1.6 0 .9-.7 1.6-1.6 1.6-.7 0-1.3-.5-1.6-1.1l.8-.3c.1.3.4.6.8.6.5 0 .8-.4.8-.8S68.5 5 68 5c-.9 0-1.6-.7-1.6-1.6 0-.9.7-1.6 1.6-1.6.7 0 1.3.5 1.6 1.1l-.8.3c-.1-.3-.4-.6-.8-.6s-.8.3-.8.8z"/></g><g id="XMLID_85_"><path id="XMLID_102_" class="st0" d="M.8 24.7H0v-5.8h.8v5.8z"/><path id="XMLID_100_" class="st0" d="M9.9 18.9v5.8h-.1l-4.1-3.9v3.9H5v-5.8l4.1 3.9v-3.9h.8z"/><path id="XMLID_98_" class="st0" d="M14.4 20.6c0 .5.4.8.8.8.9 0 1.6.7 1.6 1.6 0 .9-.7 1.6-1.6 1.6-.7 0-1.3-.5-1.6-1.1l.8-.3c.1.3.4.6.8.6.5 0 .8-.4.8-.8s-.4-.8-.8-.8c-.9 0-1.6-.7-1.6-1.6 0-.9.7-1.6 1.6-1.6.7 0 1.3.5 1.6 1.1l-.8.2c-.1-.3-.4-.6-.8-.6-.4.1-.8.4-.8.9z"/><path id="XMLID_95_" class="st0" d="M24.3 23.7h-3.4l-.6 1h-.9l3.2-5.9 3.2 5.9h-.9l-.6-1zm-.5-.9l-1.3-2.3-1.3 2.3h2.6z"/><path id="XMLID_93_" class="st0" d="M30 23.9h3.3v.8h-4.1v-5.8h.8v5z"/><path id="XMLID_90_" class="st0" d="M40.8 23.7h-3.4l-.6 1h-.9l3.2-5.9 3.2 5.9h-.9l-.6-1zm-.5-.9L39 20.5l-1.3 2.3h2.6z"/><path id="XMLID_88_" class="st0" d="M49.2 18.9v.8h-2.1v4.9h-.8v-4.9h-2.1v-.8h5z"/><path id="XMLID_86_" class="st0" d="M53.5 19.8V22H56v.8h-2.5v1h3.3v.8h-4.1v-5.8h4.1v.8h-3.3z"/></g><g id="XMLID_67_"><path id="XMLID_83_" class="st0" d="M.8 41.9h3.3v.8H0v-5.8h.8v5z"/><path id="XMLID_80_" class="st0" d="M11.6 41.7H8.2l-.6 1h-.9l3.2-5.9 3.2 5.9h-.9l-.6-1zm-.5-.8l-1.3-2.3-1.3 2.3h2.6z"/><path id="XMLID_78_" class="st0" d="M16.9 38.6c0 .5.4.8.8.8.9 0 1.6.7 1.6 1.6 0 .9-.7 1.6-1.6 1.6-.7 0-1.3-.5-1.6-1.1l.8-.3c.1.3.4.6.8.6.5 0 .8-.4.8-.8 0-.5-.4-.8-.8-.8-.9 0-1.6-.7-1.6-1.6 0-.9.7-1.6 1.6-1.6.7 0 1.3.5 1.6 1.1l-.8.3c-.1-.3-.4-.6-.8-.6-.5 0-.8.3-.8.8z"/><path id="XMLID_75_" class="st0" d="M26.7 41.7h-3.4l-.6 1h-.9l3.2-5.9 3.2 5.9h-.9l-.6-1zm-.4-.8L25 38.5l-1.3 2.3h2.6z"/><path id="XMLID_73_" class="st0" d="M35.1 40.6h-1.4v-.8H36v1.8c-.5.7-1.3 1.1-2.3 1.1-1.6 0-2.9-1.3-2.9-2.9 0-1.6 1.3-2.9 2.9-2.9.9 0 1.8.5 2.3 1.1l-.7.5c-.4-.5-1-.8-1.6-.8-1.1 0-2.1.9-2.1 2.1 0 1.1.9 2.1 2.1 2.1.6 0 1.1-.2 1.4-.6v-.7z"/><path id="XMLID_71_" class="st0" d="M44.6 36.9v5.8h-.1l-4.1-3.9v3.9h-.8v-5.8l4.1 3.9v-3.9h.9z"/><path id="XMLID_68_" class="st0" d="M52.9 41.7h-3.4l-.6 1H48l3.2-5.9 3.2 5.9h-.9l-.6-1zm-.4-.8l-1.3-2.3-1.3 2.3h2.6z"/></g><g id="XMLID_40_"><path id="XMLID_64_" class="st0" d="M2.1 54.9c1.1 0 2.1.9 2.1 2.1 0 1.1-.9 2.1-2.1 2.1H.8v1.6H0v-5.8h2.1zm0 3.3c.7 0 1.2-.6 1.2-1.2 0-.7-.6-1.2-1.2-1.2H.8v2.5h1.3z"/><path id="XMLID_61_" class="st0" d="M10.8 59.7H7.4l-.6 1h-.9l3.2-5.9 3.2 5.9h-.9l-.6-1zm-.4-.8l-1.3-2.3-1.3 2.3h2.6z"/><path id="XMLID_59_" class="st0" d="M16.1 56.6c0 .5.4.8.8.8.9 0 1.6.7 1.6 1.6 0 .9-.7 1.6-1.6 1.6-.7 0-1.3-.5-1.6-1.1l.8-.3c.1.3.4.6.8.6.5 0 .8-.4.8-.8 0-.5-.4-.8-.8-.8-.9 0-1.6-.7-1.6-1.6 0-.9.7-1.6 1.6-1.6.7 0 1.3.5 1.6 1.1l-.8.3c-.1-.3-.4-.6-.8-.6s-.8.3-.8.8z"/><path id="XMLID_57_" class="st0" d="M26.6 54.9v.8h-2.1v4.9h-.8v-4.9h-2.1v-.8h5z"/><path id="XMLID_55_" class="st0" d="M31 60.7h-.8v-5.8h.8v5.8z"/><path id="XMLID_53_" class="st0" d="M38.9 59.1l.7.5c-.5.7-1.4 1.1-2.3 1.1-1.6 0-2.9-1.3-2.9-2.9 0-1.6 1.3-2.9 2.9-2.9.9 0 1.8.5 2.3 1.1l-.7.5c-.4-.5-1-.8-1.6-.8-1.1 0-2.1.9-2.1 2.1 0 1.1.9 2.1 2.1 2.1.6 0 1.2-.3 1.6-.8z"/><path id="XMLID_51_" class="st0" d="M46.7 59.1l.7.5c-.5.7-1.4 1.1-2.3 1.1-1.6 0-2.9-1.3-2.9-2.9 0-1.6 1.3-2.9 2.9-2.9.9 0 1.8.5 2.3 1.1l-.7.5c-.4-.5-1-.8-1.6-.8-1.1 0-2.1.9-2.1 2.1 0 1.1.9 2.1 2.1 2.1.7 0 1.2-.3 1.6-.8z"/><path id="XMLID_49_" class="st0" d="M51.6 55.8V58h2.5v.8h-2.5v1h3.3v.8h-4.1v-5.8h4.1v.8h-3.3z"/><path id="XMLID_46_" class="st0" d="M63.1 60.7h-1L61 59.1h-1.3v1.6h-.8v-5.8H61c1.1 0 2.1.9 2.1 2.1 0 .8-.5 1.5-1.2 1.9l1.2 1.8zm-3.3-2.5H61c.7 0 1.2-.6 1.2-1.2 0-.7-.6-1.2-1.2-1.2h-1.2v2.4z"/><path id="XMLID_44_" class="st0" d="M67.8 60.7H67v-5.8h.8v5.8z"/><path id="XMLID_41_" class="st0" d="M76.1 59.7h-3.4l-.6 1h-.9l3.2-5.9 3.2 5.9h-.9l-.6-1zm-.5-.8l-1.3-2.3-1.3 2.3h2.6z"/></g><g id="XMLID_15_"><path id="XMLID_37_" class="st0" d="M2.1 73c1.1 0 2.1.9 2.1 2.1 0 1.1-.9 2.1-2.1 2.1H.8v1.6H0V73h2.1zm0 3.2c.7 0 1.2-.6 1.2-1.2 0-.7-.6-1.2-1.2-1.2H.8v2.5h1.3z"/><path id="XMLID_34_" class="st0" d="M10.8 77.7H7.4l-.6 1h-.9l3.2-5.9 3.2 5.9h-.9l-.6-1zm-.4-.8l-1.3-2.3-1.3 2.3h2.6z"/><path id="XMLID_32_" class="st0" d="M20.7 73v5.8h-.1l-4.1-3.9v3.9h-.8V73l4.1 3.9V73h.9z"/><path id="XMLID_30_" class="st0" d="M25.6 73.8V76h2.5v.8h-2.5v1h3.3v.8h-4.1V73h4.1v.8h-3.3z"/><path id="XMLID_28_" class="st0" d="M37.3 73v.8h-2.1v4.9h-.8v-4.9h-2.1V73h5z"/><path id="XMLID_26_" class="st0" d="M45.2 73v.8h-2.1v4.9h-.8v-4.9h-2.1V73h5z"/><path id="XMLID_24_" class="st0" d="M49.6 73.8V76h2.5v.8h-2.5v1h3.3v.8h-4.1V73h4.1v.8h-3.3z"/><path id="XMLID_21_" class="st0" d="M61.1 78.7h-1L59 77.1h-1.3v1.6H57V73h2c1.1 0 2.1.9 2.1 2.1 0 .8-.5 1.5-1.2 1.9l1.2 1.7zm-3.3-2.5H59c.7 0 1.2-.6 1.2-1.2 0-.7-.6-1.2-1.2-1.2h-1.2v2.4z"/><path id="XMLID_19_" class="st0" d="M65.8 78.7H65V73h.8v5.7z"/><path id="XMLID_16_" class="st0" d="M74.1 77.7h-3.4l-.6 1h-.9l3.2-5.9 3.2 5.9h-.9l-.6-1zm-.4-.8l-1.3-2.3-1.3 2.3h2.6z"/></g><g id="XMLID_2_"><path id="XMLID_13_" class="st0" d="M4.5 95.9l.7.5c-.5.7-1.4 1.1-2.3 1.1-1.6 0-2.9-1.3-2.9-2.9 0-1.6 1.3-2.9 2.9-2.9.9 0 1.8.5 2.3 1.1l-.7.5c-.4-.5-1-.8-1.6-.8-1.1 0-2.1.9-2.1 2.1 0 1.1.9 2.1 2.1 2.1.7 0 1.3-.3 1.6-.8z"/><path id="XMLID_10_" class="st0" d="M12.4 96.5H9l-.6 1h-.9l3.2-5.9 3.2 5.9H13l-.6-1zm-.4-.8l-1.3-2.3-1.3 2.3H12z"/><path id="XMLID_8_" class="st0" d="M18.1 92.6v2.3h2.5v.8h-2.5v1.9h-.8v-5.8h4.1v.8h-3.3z"/><path id="XMLID_6_" class="st0" d="M25.9 92.6v2.3h2.5v.8h-2.5v1.9H25v-5.8h4.1v.8h-3.2z"/><path id="XMLID_3_" class="st0" d="M33.6 92.6v2.3h2.5v.8h-2.5v1h3.3v.8h-4.1v-5.8h4.1v.8h-3.3zm2.2-1.6l-2-.6.1-.4 2 .6-.1.4z"/></g></g></svg>