<svg xmlns="http://www.w3.org/2000/svg" viewBox="0 0 70.9 79.8"><g fill="#512C1D"><path d="M11.5 34.8h2.9v.7h-3.7v-5h.7v4.3zM21.2 34.6h-3l-.5.9h-.8l2.9-5.1 2.9 5.1h-.8l-.7-.9zm-.4-.7l-1.1-2-1.1 2h2.2zM26.1 31.9c0 .4.3.7.7.7.8 0 1.5.6 1.5 1.4 0 .8-.7 1.4-1.5 1.4-.6 0-1.2-.4-1.4-1l.7-.2c.1.3.4.5.7.5.4 0 .7-.3.7-.7 0-.4-.3-.7-.7-.7-.8 0-1.5-.6-1.5-1.4 0-.8.7-1.4 1.5-1.4.6 0 1.2.4 1.4 1l-.7.2c-.1-.3-.4-.5-.7-.5-.4 0-.7.3-.7.7zM35.1 34.6h-3l-.5.9h-.8l2.9-5.1 2.9 5.1h-.8l-.7-.9zm-.4-.7l-1.1-2-1.1 2h2.2zM42.7 33.7h-1.3V33h2v1.6c-.5.6-1.2 1-2 1-1.4 0-2.6-1.1-2.6-2.5s1.1-2.5 2.6-2.5c.8 0 1.6.4 2 1l-.6.4c-.3-.4-.9-.7-1.5-.7-1 0-1.8.8-1.8 1.8s.8 1.8 1.8 1.8c.5 0 1-.2 1.3-.5v-.7zM51.4 30.4v5L47.8 32v3.4H47v-5l3.6 3.4v-3.4h.8zM58.9 34.6h-3l-.5.9h-.8l2.9-5.1 2.9 5.1h-.8l-.7-.9zm-.4-.7l-1.1-2-1.1 2h2.2z"/></g><g fill="#512C1D"><path d="M10 21v-5h.7v5H10zM19 16v5l-3.6-3.4V21h-.7v-5l3.6 3.4V16h.7zM23.2 17.4c0 .4.3.7.7.7.8 0 1.5.6 1.5 1.4 0 .8-.7 1.4-1.5 1.4-.6 0-1.2-.4-1.4-1l.7-.2c.1.3.4.5.7.5.4 0 .7-.3.7-.7 0-.4-.3-.7-.7-.7-.8 0-1.5-.6-1.5-1.4 0-.8.7-1.4 1.5-1.4.6 0 1.2.4 1.4 1l-.7.2c-.1-.3-.4-.5-.7-.5-.3 0-.7.3-.7.7zM32.2 20.1h-3l-.6.9h-.8l2.9-5.1 2.9 5.1h-.8l-.6-.9zm-.4-.7l-1.1-2-1.1 2h2.2zM37.4 20.3h2.9v.7h-3.7v-5h.7v4.3zM47.2 20.1h-3l-.5.9h-.8l2.9-5.1 2.9 5.1h-.8l-.7-.9zm-.4-.7l-1.1-2-1.1 2h2.2zM54.9 16v.7h-1.8V21h-.7v-4.3h-1.8V16h4.3zM58.1 16.6v2h2.2v.7h-2.2v.9H61v.7h-3.7v-5H61v.7h-2.9z"/></g><g fill="#512C1D"><path d="M4.5 3c0 .4.3.7.7.7.8 0 1.5.6 1.5 1.4 0 .8-.7 1.4-1.5 1.4-.6 0-1.2-.4-1.4-1l.7-.2c.1.3.4.5.7.5.4 0 .7-.3.7-.7 0-.4-.3-.7-.7-.7-.8 0-1.4-.6-1.4-1.4 0-.8.7-1.4 1.5-1.4.6 0 1.2.4 1.4 1l-.8.1c-.1-.3-.4-.5-.7-.5-.4 0-.7.4-.7.8zM13.4 5.6h-3l-.5.9h-.8L12 1.4l2.9 5.1h-.8l-.7-.9zm-.4-.7l-1.1-2-1.1 2H13zM11 .5l1.7-.5.1.3-1.7.5-.1-.3zM22.4 1.5v5l-3.6-3.4v3.4H18v-5l3.6 3.4V1.5h.8zM26.2 1.3zm0 5.2v-5H28c1.4 0 2.6 1.1 2.6 2.5S29.5 6.5 28 6.5h-1.8zm1.9-.7c1 0 1.8-.8 1.8-1.8s-.8-1.8-1.8-1.8H27v3.6h1.1zM35.9 6.5c-1.2 0-2.2-1-2.2-2.2V1.5h.7v2.9c0 .8.6 1.4 1.5 1.4.8 0 1.5-.6 1.5-1.4V1.5h.7v2.9c0 1.2-1 2.1-2.2 2.1zM45.2 5.1l.6.4c-.5.6-1.2 1-2 1-1.4 0-2.6-1.1-2.6-2.5s1.2-2.5 2.6-2.5c.8 0 1.6.4 2 1l-.6.5c-.3-.4-.9-.7-1.5-.7-1 0-1.8.8-1.8 1.8s.8 1.8 1.8 1.8c.6-.1 1.1-.4 1.5-.8zM53.4 1.5v5h-.7V4.9h-2.9v1.6H49v-5h.7v2.7h2.9V1.5h.8zM57.9 2.2v2h2.2v.7h-2.2v.9h2.9v.7h-3.7v-5h3.7v.7h-2.9zM65 3c0 .4.3.7.7.7.8 0 1.5.6 1.5 1.4 0 .8-.7 1.4-1.5 1.4-.6 0-1.2-.4-1.4-1l.7-.2c.1.3.4.5.7.5.4 0 .7-.3.7-.7 0-.4-.3-.7-.7-.7-.8 0-1.5-.6-1.5-1.4 0-.8.7-1.4 1.5-1.4.6 0 1.2.4 1.4 1l-.7.2c-.1-.3-.4-.5-.7-.5-.3-.1-.7.3-.7.7z"/></g><g fill="#512C1D"><path d="M1.9 45.3c1 0 1.8.8 1.8 1.8s-.8 1.8-1.8 1.8H.8v1.4H0v-5h1.9zm0 2.8c.6 0 1.1-.5 1.1-1.1 0-.5-.5-1-1.1-1H.8v2.2h1.1zM9.9 49.4h-3l-.5.9h-.9l2.9-5.1 2.9 5.1h-.8l-.6-.9zm-.4-.7l-1.1-2-1.1 2h2.2zM14.8 46.7c0 .4.3.7.7.7.8 0 1.5.7 1.5 1.4 0 .8-.7 1.4-1.5 1.4-.6 0-1.2-.4-1.4-1l.7-.2c.1.3.4.5.7.5.4 0 .7-.3.7-.7 0-.4-.3-.7-.7-.7-.8 0-1.5-.6-1.5-1.4 0-.8.7-1.4 1.5-1.4.6 0 1.2.4 1.4 1l-.7.2c-.1-.3-.4-.5-.7-.5-.4 0-.7.3-.7.7zM24.3 45.3v.7h-1.8v4.3h-.7V46H20v-.7h4.3zM27.6 50.3v-5h.7v5h-.7zM35.6 48.8l.6.4c-.5.6-1.2 1-2 1-1.4 0-2.6-1.1-2.6-2.5s1.1-2.5 2.6-2.5c.8 0 1.6.4 2 1l-.6.4c-.3-.4-.9-.7-1.5-.7-1 0-1.8.8-1.8 1.8s.8 1.8 1.8 1.8c.6.1 1.2-.2 1.5-.7zM42.7 48.8l.6.4c-.5.6-1.2 1-2 1-1.4 0-2.6-1.1-2.6-2.5s1.2-2.5 2.6-2.5c.8 0 1.6.4 2 1l-.6.4c-.3-.4-.9-.7-1.5-.7-1 0-1.8.8-1.8 1.8s.8 1.8 1.8 1.8c.7.1 1.2-.2 1.5-.7zM47.3 46v2h2.2v.7h-2.2v.9h2.9v.7h-3.7v-5h3.7v.7h-2.9zM57.7 50.3h-.9l-1-1.4h-1.1v1.4H54v-5h1.8c1 0 1.8.8 1.8 1.8 0 .7-.4 1.3-1 1.6l1.1 1.6zm-3-2.2h1.1c.6 0 1.1-.5 1.1-1.1 0-.6-.5-1.1-1.1-1.1h-1.1v2.2zM61.3 50.3v-5h.7v5h-.7zM69.6 49.4h-3l-.5.9h-.8l2.9-5.1 2.9 5.1h-.8l-.7-.9zm-.4-.7l-1.1-2-1.1 2h2.2z"/></g><g fill="#512C1D"><path d="M3.2 59.7c1 0 1.8.8 1.8 1.8s-.8 1.8-1.8 1.8H2.1v1.4h-.8v-5h1.9zm0 2.9c.6 0 1.1-.5 1.1-1.1 0-.6-.5-1.1-1.1-1.1H2.1v2.2h1.1zM11.2 63.8h-3l-.5.9h-.9l2.9-5.1 2.9 5.1h-.8l-.6-.9zm-.4-.7l-1.1-2-1.1 2h2.2zM20.1 59.7v5l-3.6-3.4v3.4h-.7v-5l3.6 3.4v-3.4h.7zM35.3 59.7v.7h-1.8v4.3h-.7v-4.3H31v-.7h4.3zM42 59.7v.7h-1.8v4.3h-.7v-4.3h-1.8v-.7H42zM46 60.4v2h2.2v.7H46v.9h2.9v.7h-3.7v-5h3.7v.7H46zM24.5 60.4v2h2.2v.7h-2.2v.9h2.9v.7h-3.7v-5h3.7v.7h-2.9zM56.4 64.7h-.9l-1-1.4h-1.1v1.4h-.7v-5h1.8c1 0 1.8.8 1.8 1.8 0 .7-.4 1.3-1 1.6l1.1 1.6zm-3-2.1h1.1c.6 0 1.1-.5 1.1-1.1 0-.6-.5-1.1-1.1-1.1h-1.1v2.2zM60 64.7v-5h.7v5H60zM68.3 63.8h-3l-.5.9H64l2.9-5.1 2.9 5.1H69l-.7-.9zm-.4-.7l-1.1-2-1.1 2h2.2z"/></g><g fill="#512C1D"><path d="M22.7 78.4l.6.4c-.5.6-1.2 1-2 1-1.4 0-2.6-1.1-2.6-2.5s1.1-2.5 2.6-2.5c.8 0 1.6.4 2 1l-.6.4c-.3-.4-.9-.7-1.5-.7-1 0-1.8.8-1.8 1.8s.8 1.8 1.8 1.8c.7 0 1.2-.3 1.5-.7zM29.9 78.9h-3l-.5.9h-.8l2.9-5.1 2.9 5.1h-.8l-.7-.9zm-.4-.7l-1.1-2-1.1 2h2.2zM35.2 75.5v2h2.2v.7h-2.2v1.6h-.7v-5h3.7v.7h-3zM42.3 75.5v2h2.2v.7h-2.2v1.6h-.7v-5h3.7v.7h-3zM49.4 75.5v2h2.2v.7h-2.2v.9h2.9v.7h-3.7v-5h3.7v.7h-2.9zm1.9-1.4l-1.8-.5.1-.3 1.8.5-.1.3z"/></g></svg>