<svg xmlns="http://www.w3.org/2000/svg" viewBox="-340 268.1 160.8 60.2"><path fill="#512C1D" d="M-334.7 268.3h-5.3v34.8h16.2v-5.3h-10.9M-292.4 292.6c0 1.5-.5 2.7-1.5 3.8-1 1-2.3 1.6-3.7 1.6-1.5 0-2.7-.5-3.8-1.6-1-1-1.6-2.3-1.6-3.8v-24.3h-5.3v24.3c0 2.9 1 5.4 3.1 7.5 2.1 2.1 4.6 3.1 7.5 3.1 2.9 0 5.4-1 7.5-3.1 2.1-2.1 3.1-4.6 3.1-7.5v-24.3h-5.3v24.3zM-259.2 296.8c-1.5-.6-2.8-1.5-3.9-2.6s-2-2.4-2.6-3.9c-.6-1.5-.9-3-.9-4.7s.3-3.3.9-4.7c.7-1.5 1.6-2.8 2.7-3.9s2.4-1.9 3.9-2.6c1.4-.6 2.9-.9 4.5-.9v-5.4c-2.4 0-4.7.5-6.8 1.4-2.2.9-4 2.2-5.7 3.7-1.6 1.6-2.9 3.4-3.8 5.6-.9 2.1-1.4 4.4-1.4 6.8s.5 4.7 1.4 6.8c.9 2.1 2.2 4 3.8 5.5 1.6 1.6 3.5 2.8 5.7 3.7 2.1.9 4.4 1.3 6.8 1.4v-5.4c-1.6.1-3.2-.2-4.6-.8M-235.7 268.3h5.3V303h-5.3zM-180.6 278.8c-.9-2.1-2.2-4-3.8-5.6s-3.5-2.8-5.7-3.7-4.5-1.4-6.9-1.4c-2.5 0-4.8.5-7 1.4s-4 2.2-5.7 3.7c-1.6 1.6-2.9 3.4-3.8 5.6-.9 2.1-1.4 4.4-1.4 6.8s.5 4.7 1.4 6.8c.9 2.1 2.2 4 3.8 5.5 1.6 1.6 3.5 2.8 5.7 3.7s4.5 1.4 7 1.4 4.8-.5 6.9-1.4c2.2-.9 4-2.2 5.7-3.7 1.6-1.6 2.9-3.4 3.8-5.5.9-2.1 1.4-4.4 1.4-6.8 0-2.4-.5-4.7-1.4-6.8m-5.3 11.5c-.6 1.5-1.5 2.8-2.6 3.8-1.1 1.1-2.4 2-3.9 2.6s-3.1.9-4.7.9c-1.7 0-3.3-.3-4.7-.9-1.5-.6-2.8-1.5-3.9-2.6s-2-2.4-2.6-3.8c-.6-1.5-.9-3-.9-4.7s.3-3.3.9-4.7c.6-1.5 1.5-2.8 2.6-3.8 1.1-1.1 2.4-1.9 3.9-2.6 1.5-.6 3.1-.9 4.7-.9 1.7 0 3.2.3 4.7.9s2.8 1.5 3.9 2.6 2 2.4 2.6 3.8c.6 1.5.9 3 .9 4.7s-.3 3.3-.9 4.7"/><path fill="#CF0A2C" d="M-307.5 322.4l1.9 1.5-.2.3-.6.6-1.6 1.6c-1.1 1.1-2.6 1.8-4.3 1.8-3.4 0-6.1-2.7-6.1-6.1 0-1.7.7-3.2 1.8-4.3l1.6-1.6c1.1-1.1 2.6-1.8 4.3-1.8 2 0 3.7 1 4.9 2.4l.2.3-1.6 1.6-1.9 1.5-.2-.3c-.7-.9-1.7-1.5-2.9-1.5-.6 0-1.2.1-1.6.4-.2.5-.4 1.1-.4 1.6 0 2 1.6 3.7 3.7 3.7 1.2 0 2.3-.6 2.9-1.5l.1-.2zM-280.4 328.3h-2.8l-1.1-2h-5.5l-.2.4-1.6 1.6h-2.8l7-12.9 1.6-1.6 7 12.8-1.6 1.7zm-7.9-5.7l2.5-4.6 2.5 4.6h-5zM-254.3 316.9l-1.6 1.6h-4.9v2h4.9v2.5l-1.6 1.6h-3.3v2l-1.6 1.7h-2.4v-12.2l1.6-1.6h8.9M-229 316.9l-1.6 1.6h-4.9v2h4.9v2.5l-1.6 1.6h-3.3v2l-1.6 1.7h-2.4v-12.2l1.6-1.6h8.9M-212.8 315.3l-1.4-.6.5-1.9 1.6-1.6 4.7 1.4-.5 1.9-4.4.1"/><path fill="#CF0A2C" d="M-210.1 318.5v2h4.8v2.5l-1.2 1.2h2.9v2.4l-1.7 1.7h-8.9v-12.2l1.6-1.6h9v2.4l-1.7 1.6"/><path fill="#FFF" d="M-314.7 320.5c0-2.2 1.8-4.1 4.1-4.1 1.3 0 2.5.6 3.2 1.6l1.3-1c-1-1.4-2.7-2.3-4.5-2.3-3.1 0-5.7 2.5-5.7 5.7 0 3.1 2.5 5.7 5.7 5.7 1.9 0 3.5-.9 4.5-2.3l-1.3-1c-.7 1-1.9 1.6-3.2 1.6-2.3.2-4.1-1.6-4.1-3.9M-281.3 326.2h1.8l-6.3-11.6-6.4 11.6h1.9l1.1-2h6.7M-254.7 316.5v-1.6h-8.1v11.3h1.6v-3.6h4.9V321h-4.9v-4.5M-229.4 316.5v-1.6h-8.1v11.3h1.6v-3.6h4.9V321h-4.9v-4.5M-204 316.5v-1.6h-8.2v11.3h8.2v-1.6h-6.5v-2h4.8V321h-4.8v-4.5M-207.9 312.9l-3.9-1.2-.3 1.1 3.9 1.2"/><path fill="#FB3449" d="M-288.3 322.6l2.5-4.6 2.5 4.6"/></svg>