<svg xmlns="http://www.w3.org/2000/svg" width="612" height="792" viewBox="0 0 612 792"><path fill="#FFF" stroke="#000" stroke-miterlimit="10" d="M0 232.857v-43.16h6.042v43.16H0zm77.687-43.16v43.16L46.612 203.51v29.347h-6.906v-43.16l31.075 29.35v-29.35h6.907zm36.254 12.086c0 3.453 2.59 6.042 6.043 6.042 6.906 0 12.948 5.18 12.948 12.084 0 6.905-6.04 12.083-12.947 12.083-5.18 0-10.358-3.453-12.084-8.632l6.04-1.725c.864 2.59 3.454 4.316 6.043 4.316 3.453 0 6.042-2.59 6.042-6.04s-2.59-6.043-6.042-6.043c-6.905 0-12.948-5.18-12.948-12.084 0-6.905 6.042-12.084 12.948-12.084 5.18 0 10.358 3.452 12.085 8.63l-6.042 1.728c-.863-2.59-3.453-4.316-6.042-4.316-2.59-.002-6.043 2.588-6.043 6.04zm77.687 23.306H165.73l-5.178 7.768h-6.905l25.032-44.022 25.032 44.022h-6.906l-5.18-7.77zm-3.452-6.044l-9.495-17.264-9.495 17.264h18.99zm48.338 7.77h25.033v6.04h-31.938V189.7h6.042v37.117h.863zm84.592-1.727H295.21l-4.316 7.768h-6.905l25.032-44.022 25.032 44.022h-6.905l-6.045-7.77zm-3.452-6.044l-9.495-17.264-9.495 17.264h18.99zm69.918-29.348v6.042h-15.536v37.117h-6.043V195.74h-15.536v-6.042h37.117zM6.042 351.978h25.032v6.042H0v-43.16h6.042v37.118zm84.593-1.727H64.74l-4.317 7.77h-7.77l25.034-44.886 25.032 44.023h-7.77l-4.315-6.906zm-3.453-6.042l-9.495-17.264-9.495 17.264h18.99zm45.75-17.263c0 3.453 2.59 6.042 6.04 6.042 6.907 0 12.95 5.18 12.95 12.084 0 6.907-6.043 12.086-12.95 12.086-5.178 0-10.357-3.453-12.083-8.632l6.04-1.727c.864 2.59 3.454 4.316 6.043 4.316 3.453 0 6.042-2.59 6.042-6.042s-2.59-6.04-6.042-6.04c-6.905 0-12.948-5.18-12.948-12.086 0-6.905 6.042-12.084 12.948-12.084 5.18 0 10.358 3.453 12.084 8.632l-6.042 1.727c-.863-2.59-3.453-4.317-6.042-4.317-3.452 0-6.042 2.59-6.042 6.042zm76.822 23.306h-25.896l-4.316 7.77h-6.905l25.032-44.022 25.03 44.022h-6.904l-6.042-7.77zm-2.59-6.042l-9.494-17.264-9.495 17.264h18.99zm69.056-1.726h-11.222v-6.042h17.264v13.81c-4.316 5.18-10.358 8.633-17.264 8.633-12.084 0-22.443-9.495-22.443-21.58s9.495-21.58 22.443-21.58c6.906 0 13.81 3.453 17.264 8.632l-5.18 3.453c-2.588-3.453-7.768-6.042-12.947-6.042-8.632 0-15.537 6.906-15.537 15.538s6.905 15.538 15.537 15.538c4.316 0 8.632-1.727 11.222-4.316v-6.042h.863zm74.234-28.485v43.16l-31.074-28.485v29.348h-6.043v-43.16l31.075 29.35v-29.35h6.042v-.863zm65.603 36.254H390.16l-4.315 7.77h-6.905l25.032-44.022 25.032 44.022H422.1l-6.043-7.77zm-3.453-6.042l-9.495-17.264-9.496 17.264h18.99zM6.042 77.484c0 3.453 2.59 6.042 6.042 6.042 6.906 0 12.948 5.18 12.948 12.085 0 6.906-6.042 12.085-12.948 12.085-5.18 0-10.358-3.453-12.084-8.632l6.042-1.727c.863 2.59 3.453 4.316 6.042 4.316 3.453 0 6.042-2.59 6.042-6.042s-2.59-6.042-6.042-6.042C6.042 89.568 0 84.388 0 77.484 0 70.578 6.042 65.4 12.948 65.4c5.18 0 10.358 3.452 12.084 8.63l-6.042.864c-.863-2.59-3.453-4.316-6.042-4.316-3.453 0-6.906 3.453-6.906 6.906zM83.73 99.927H57.832l-5.18 7.77H45.75l25.03-44.023 24.17 44.022h-6.906l-4.315-7.77zm-3.454-6.043L70.78 76.62 60.424 93.884h19.853zM62.15 55.904l15.537-4.316.863 2.59-15.538 5.18-.863-3.454zm98.403 8.632v43.16l-31.075-29.35v29.35h-6.042v-43.16l31.075 29.348V64.536h6.043zm33.664 43.16v-43.16h15.537c12.085 0 22.443 9.495 22.443 21.58s-9.495 21.58-22.443 21.58h-15.537zm15.537-6.043c8.632 0 15.538-6.905 15.538-15.537s-6.906-15.538-15.538-15.538h-9.495v31.075h9.494zm67.33 6.042c-10.36 0-18.99-8.632-18.99-18.99v-24.17h6.04V89.57c0 6.905 5.18 12.084 12.95 12.084 6.905 0 12.947-5.18 12.947-12.084V64.536h6.043v25.032c0 10.36-8.632 18.127-18.99 18.127zm80.275-12.084l5.18 3.454c-4.317 5.18-10.36 8.632-17.265 8.632-12.085 0-22.443-9.495-22.443-21.58s10.358-21.58 22.443-21.58c6.905 0 13.81 3.453 17.264 8.632l-5.18 4.316c-2.59-3.453-7.77-6.042-12.948-6.042-8.632 0-15.538 6.905-15.538 15.538 0 8.632 6.906 15.537 15.538 15.537 6.042-.864 10.36-3.454 12.947-6.906zm70.78-31.074v43.16h-6.04V93.883h-25.033v13.81h-6.042V64.537h6.042v23.306H422.1V64.536h6.04zm39.708 6.042v17.264h18.99v6.042h-18.99v7.77h25.032v6.04h-31.938V64.537h31.938v6.042h-25.032zm-52.655 124.3v17.263h18.99v6.043h-18.99v7.77h25.032v6.04h-31.938v-43.158h31.938v6.042h-25.032zm113.94-117.394c0 3.453 2.59 6.042 6.044 6.042 6.905 0 12.947 5.18 12.947 12.085 0 6.906-6.042 12.085-12.947 12.085-5.18 0-10.358-3.453-12.085-8.632l6.042-1.727c.863 2.59 3.453 4.316 6.043 4.316 3.452 0 6.042-2.59 6.042-6.042s-2.59-6.042-6.043-6.042c-6.906 0-12.948-5.18-12.948-12.084 0-6.906 6.04-12.084 12.947-12.084 5.18 0 10.357 3.453 12.084 8.632l-6.04 1.726c-.864-2.59-3.454-4.316-6.043-4.316-3.453-.864-6.043 2.59-6.043 6.042zM15.538 442.612c8.632 0 15.537 6.905 15.537 15.537s-6.905 15.536-15.537 15.536H6.042v12.085H0v-43.158h15.538zm0 24.17c5.18 0 9.495-4.316 9.495-9.496 0-5.18-4.316-9.495-9.495-9.495H6.042v18.99h9.496zM84.592 478H58.697l-4.316 7.77h-6.905l25.033-44.022 25.032 44.022h-6.905l-6.043-7.77zm-3.452-6.04l-9.495-17.266-9.495 17.265h18.99zm45.75-17.266c0 3.453 2.588 6.043 6.04 6.043 6.907 0 12.95 6.04 12.95 12.083 0 6.906-6.043 12.085-12.95 12.085-5.178 0-10.357-3.452-12.083-8.632l6.042-1.727c.862 2.59 3.452 4.315 6.04 4.315 3.454 0 6.043-2.59 6.043-6.043 0-3.452-2.59-6.042-6.042-6.042-6.904 0-12.947-5.18-12.947-12.085 0-6.905 6.042-12.084 12.948-12.084 5.18 0 10.36 3.453 12.086 8.633l-6.042 1.727c-.863-2.59-3.453-4.316-6.042-4.316-2.59 0-6.043 2.59-6.043 6.042zm82.002-12.084v6.042h-15.538v37.117h-6.042v-37.116h-15.537v-6.042h37.117zm29.348 43.16v-43.16h6.042v43.16h-6.042zm69.055-12.95l5.18 3.454c-4.316 5.18-10.36 8.632-17.265 8.632-12.084 0-22.443-9.495-22.443-21.58 0-12.084 9.495-21.58 22.443-21.58 6.905 0 13.812 3.454 17.264 8.633l-5.18 3.454c-2.59-3.453-7.768-6.043-12.947-6.043-8.632 0-15.538 6.906-15.538 15.54 0 8.63 6.904 15.536 15.537 15.536 5.18.863 9.495-1.726 12.948-6.043zm61.286 0l5.18 3.454c-4.315 5.18-10.357 8.632-17.264 8.632-12.084 0-22.442-9.495-22.442-21.58 0-12.084 10.358-21.58 22.442-21.58 6.906 0 13.812 3.454 17.264 8.633l-5.18 3.454c-2.59-3.453-7.768-6.043-12.947-6.043-8.632 0-15.537 6.906-15.537 15.54 0 8.63 6.905 15.536 15.537 15.536 6.043.863 10.358-1.726 12.948-6.043zm38.845-24.168v17.264h18.99v6.043h-18.99v7.77h25.032v6.042H400.52v-43.16h31.938v6.043h-25.033zm90.635 37.117h-7.77l-8.632-12.084h-9.494v12.085h-6.043v-43.158h15.538c8.633 0 15.538 6.905 15.538 15.537 0 6.04-3.453 11.22-8.632 13.81l9.496 13.81zm-25.896-18.99h9.494c5.18 0 9.495-4.314 9.495-9.494s-4.315-9.495-9.495-9.495h-9.494v18.99zm56.97 18.99v-43.158h6.043v43.16h-6.043zm71.644-7.767h-25.896l-4.315 7.77h-6.906l25.034-44.023 25.032 44.022h-6.905l-6.042-7.77zm-3.452-6.042l-9.495-17.264-9.494 17.265h18.99zM15.538 566.91c8.632 0 15.537 6.906 15.537 15.538s-6.905 15.538-15.537 15.538H6.042v12.084H0v-43.16h15.538zm0 25.033c5.18 0 9.495-4.315 9.495-9.495 0-5.18-4.316-9.495-9.495-9.495H6.042v18.99h9.496zm69.054 10.36H58.697l-4.316 7.768h-6.905l25.033-44.02 25.032 44.02h-6.905l-6.043-7.768zm-3.452-6.043l-9.495-17.264-9.495 17.264h18.99zm81.14-29.35v43.16l-31.076-29.35v29.35h-6.042v-43.16l31.075 29.35v-29.35h6.042zm131.204 0v6.043h-15.538v37.117h-6.042v-37.117h-15.538v-6.042h37.118zm56.97 0v6.043h-15.537v37.117h-6.043v-37.117h-15.537v-6.042h37.117zm34.527 6.043v17.264h18.99v6.043h-18.99v7.77h25.033v6.04h-31.938v-43.158h31.938v6.042H384.98zm-185.584 0v17.264h18.99v6.043h-18.99v7.77h25.032v6.04H192.49v-43.158h31.938v6.042h-25.032zm276.22 37.117h-7.77l-8.63-12.085h-9.496v12.085h-6.042v-43.16h15.537c8.632 0 15.537 6.906 15.537 15.538 0 6.043-3.452 11.222-8.632 13.812l9.496 13.81zm-25.895-18.127h9.496c5.18 0 9.495-4.315 9.495-9.495 0-5.18-4.315-9.495-9.494-9.495h-9.495v18.99zm56.97 18.127v-43.16h6.043v43.16h-6.042zm71.646-7.768H552.44l-4.316 7.77h-6.905l25.03-44.023 25.033 44.02h-6.905l-6.042-7.768zm-3.453-6.042l-9.495-17.264-9.495 17.264h18.99zM34.527 728.327l5.18 3.453c-4.317 5.18-10.36 8.632-17.265 8.632-12.084 0-22.442-9.495-22.442-21.58s9.495-21.58 22.443-21.58c6.905 0 13.81 3.453 17.264 8.633l-5.18 3.452c-2.588-3.452-7.768-6.042-12.947-6.042-8.632 0-15.537 6.905-15.537 15.537s6.905 15.538 15.537 15.538c6.042 0 10.358-2.59 12.947-6.043zm62.15 4.317H70.78l-4.315 7.77h-7.77L83.73 696.39l25.033 44.023h-6.905l-5.178-7.77zm-3.453-6.043l-9.495-17.263-9.496 17.264h18.99zm49.202-23.305v17.264h18.99v6.04h-18.99v13.813h-6.042v-43.16h31.938v6.043h-25.896zm61.286 0v17.264h18.99v6.04h-18.99v13.813h-6.042v-43.16h31.938v6.043h-25.896zm61.287 0v17.264h18.99v6.04H265v7.77h25.032v6.043h-31.938v-43.16h31.938v6.043H265zm16.4-12.085l-15.54-4.315.864-2.59 15.537 4.315-.86 2.59z"/></svg>